PathFileType	4	(X/Y/Z)	pose_F01_0-96.trc
DataRate	CameraRate	NumFrames	NumMarkers	Units	OrigDataRate	OrigDataStartFrame	OrigNumFrames
30	30	10	21	m	30	41	96
Frame#	Time	CHip			RHip			RKnee			RAnkle			RBigToe			RSmallToe			RHeel			LHip			LKnee			LAnkle			LBigToe			LSmallToe			LHeel			Neck			Nose			RShoulder			RElbow			RWrist			LShoulder			LElbow			LWrist			
		X1	Y1	Z1	X2	Y2	Z2	X3	Y3	Z3	X4	Y4	Z4	X5	Y5	Z5	X6	Y6	Z6	X7	Y7	Z7	X8	Y8	Z8	X9	Y9	Z9	X10	Y10	Z10	X11	Y11	Z11	X12	Y12	Z12	X13	Y13	Z13	X14	Y14	Z14	X15	Y15	Z15	X16	Y16	Z16	X17	Y17	Z17	X18	Y18	Z18	X19	Y19	Z19	X20	Y20	Z20	X21	Y21	Z21	
41	1.3666666666666667	-0.22034904256247145	1.823294798009653	-0.4786078636963424	-0.22680133639735256	1.8223510345072365	-0.4128277466189602																-0.20961583585881616	1.8241462742173802	-0.5345022292519951	-0.1965380069683867	1.6917265922351346	-0.4980632274207536	-0.19535847249321378	1.5614463800560976	-0.48091445012497575				-0.22695862629553823	1.53149610121107	-0.5104581995420704	-0.18693975899877663	1.5488185770766554	-0.4758327407997051	-1.8384904232387675	1.891926848057566	1.3298163015857654	-0.2356745270902825	2.032293287330989	-0.49861542160954997	-0.2127242211327984	1.980297829384846	-0.41242840036371997	-0.22245451659263898	1.9074571432917276	-0.3435345222144851	-0.29502180791973875	1.8985262136808343	-0.3738266806050668	-0.18385608292706704	1.9795302293989125	-0.5850991368258922	-0.17320184509960365	1.9104474010627106	-0.6183027391189465	-0.24067122655733503	1.9072644691084237	-0.5631582644389656
42	1.4	-0.21942963646660227	1.8237538926277763	-0.4752402300775511	-0.22597701847674953	1.821066516368599	-0.4093718335289875																-0.20879249508209172	1.8243516252306455	-0.5312422403927104	-0.19657869777209283	1.692050459017134	-0.498040830732577	-0.19533849222312835	1.5604751842364826	-0.4808344208614698				-0.22721918917441028	1.5300036586843804	-0.5097356549911335	-0.18693975899877663	1.5488185770766554	-0.4758327407997051	-0.20082074918904594	1.9794590639211904	-0.49460803684540583	-0.23367087776698053	2.0334035825671535	-0.5006517563053619	-0.21463350516379417	1.9802518249948866	-0.4102665709977971	-0.21981015827165679	1.903094977409392	-0.3416298283483243	-0.2817227012039582	1.8879801351989207	-0.35513951090796664	-0.1850193771401007	1.9803601883992792	-0.5796916130569612	-0.17296195181035545	1.9100820282644346	-0.6068209615300953	-0.23807705251638198	1.903078000773953	-0.5530829703764153
43	1.4333333333333333	-0.22017218326522728	1.8247853759621435	-0.47880455301030417	-0.22663687084271297	1.8241244171394917	-0.41325738901029524																-0.2085913140938925	1.8253795576386813	-0.5315136137173698	-0.19529788234533324	1.6917363725197352	-0.49538719000157694	-0.19531851195304295	1.5595039884168678	-0.48075439159796385				-0.22880948053261355	1.5301617995855123	-0.508688500595279	-0.18693975899877663	1.5488185770766554	-0.4758327407997051	-0.1999051366536073	1.9811993731877908	-0.5003098580212094	-0.23259390392970955	2.0336200278692944	-0.5059966809389971	-0.2168293599185535	1.9796840116374514	-0.4253629474955949	-0.2228371419145641	1.9124738688831677	-0.35341676521640225	-0.23303836227705416	1.8628971508467094	-0.26296187309582814	-0.1869802929310109	1.9831044040290613	-0.5778198993699354	-0.1827221946396802	1.9120118238395674	-0.583339457896143	-0.24759622190381284	1.9069359957347631	-0.5505903400606166
44	1.4666666666666666	-0.21901333297079342	1.825789963687804	-0.47580938585078547	-0.2247409525762588	1.8237517556591745	-0.41529334161370096																-0.2083893420915309	1.8263161915743213	-0.5316729960613602	-0.19603951339875092	1.688761530694864	-0.4983257949112346	-0.19529853168295752	1.5585327925972527	-0.4806743623344579				-0.22726121203985128	1.5298428618187825	-0.5097457893279561	-0.18693975899877663	1.5488185770766554	-0.4758327407997051	-0.19985803608765096	1.981229780607523	-0.5002973117343609	-0.2303897861372791	2.036729651056102	-0.517161315905912	-0.2169166891986126	1.9808325076650288	-0.42592804690357144	-0.2241330539845572	1.9095729185095927	-0.34160528839391646	-0.22074934733000512	1.8570106649689548	-0.2747364523570341	-0.1849048930176162	1.9835471590134035	-0.5798527424818533	-0.1962514595936487	1.9117216427843389	-0.57291331603234	-0.2531552592715793	1.9086894651215862	-0.5552763966531371
45	1.5	-0.2191693093928543	1.8266163543861917	-0.4794306785012838	-0.22404909300457032	1.825600729911876	-0.415724764954876																-0.20740889040769356	1.8247452630725725	-0.532170692937035	-0.19577622071515655	1.6893559423611197	-0.4986686769103249	-0.19538890321024407	1.5614606564983002	-0.4808947396294678				-0.2266834910383902	1.530200718170609	-0.5107684117297526	-0.18693975899877663	1.5488185770766554	-0.4758327407997051	-0.1989270938689266	1.9795416022116925	-0.4967767607512182	-0.22928566958372257	2.0388502361994707	-0.5313658173841286	-0.2139848792613026	1.977952134994657	-0.4155440445765323	-0.22099114922985957	1.8982458721518838	-0.34450287519512407	-0.22430891108857387	1.873048193438621	-0.31996450129665077	-0.18488756537492892	1.9820217363809367	-0.5796303399115424	-0.20316976446267893	1.9203951978717604	-0.5812069509895426	-0.2532799630200427	1.9137386116991033	-0.5357020892718737
46	1.5333333333333334	-0.21727743659438828	1.8245670489840913	-0.48142281077043364	-0.22405171751801845	1.8235192457559004	-0.41534611701137863																-0.2044229988911769	1.8250149232546264	-0.5394909697554179	-0.1955129280315622	1.6899503540273755	-0.49901155890941523	-0.19535033964560655	1.5612991062706785	-0.48090651382108696				-0.22883656659172893	1.5276037420110942	-0.5079758288658586	-0.18693975899877663	1.5488185770766554	-0.4758327407997051	-0.20178334501726586	1.979476715315992	-0.49760834307284996	-0.2271831359654084	2.0401549581168674	-0.5336894053829596	-0.21380058317220527	1.9766872481550017	-0.4145498189390212	-0.2355674948795887	1.9080930242047	-0.3368277781163208	-0.22786847484714262	1.8890857219082873	-0.36519255023626745	-0.1869593404268303	1.9816958638720414	-0.577522509146743	-0.21362967923801784	1.9191903112040178	-0.5697493947612313	-0.25340466676850615	1.9187877582766204	-0.5161277818906103
47	1.5666666666666667	-0.2158989236798764	1.8268200571903705	-0.47838315013537985	-0.22370489638307367	1.8232933373403046	-0.41533827177659555																-0.20521373048103345	1.827284735838735	-0.534570799955026	-0.19524963534796783	1.6905447656936312	-0.49935444090850556	-0.19531177608096903	1.5611375560430565	-0.48091828801270603				-0.2270901918534397	1.528996639247204	-0.5101946334354676	-0.18693975899877663	1.5488185770766554	-0.4758327407997051	-0.20090344426824872	1.979029848925463	-0.4944750714697807	-0.226106853775525	2.040220280355591	-0.5387871071419515	-0.21456252559133576	1.9775122929136046	-0.4091628518705891	-0.24446854819402744	1.910780455065686	-0.3661134633930941	-0.23142803860571137	1.9051232503779536	-0.41042059917588414	-0.18492933301810638	1.981540996744304	-0.5795952527422149	-0.2225565747173744	1.9165779795015887	-0.5902063017878288	-0.25352937051696955	1.9238369048541375	-0.4965534745093468
48	1.6	-0.21606506459285527	1.8261166498477697	-0.47810537977999806	-0.22263648430244157	1.8222827617770123	-0.4119598352126715																-0.20339660087082076	1.8270620550737067	-0.536537217702268	-0.19498634266437345	1.691139177359887	-0.49969732290759583	-0.19495793883656906	1.5613165999786505	-0.48135105660494415				-0.22674196574882194	1.5303596935114394	-0.51083537485878	-0.18693975899877663	1.5488185770766554	-0.4758327407997051	-0.20177376867294897	1.9795285800531668	-0.497575854017342	-0.22400740734715904	2.0403573738193472	-0.5411090918515786	-0.21556082389585424	1.9764240958296648	-0.4119385317547065	-0.25790421485466414	1.913632509269501	-0.40881977166961514	-0.23498760236428012	1.9211607788476197	-0.4556486481155009	-0.18488191259766826	1.9833208180932234	-0.5800405827448445	-0.22306526512338173	1.9163196456780462	-0.5928285619194159	-0.24392024082150537	1.9304690291011557	-0.47451031977427655
49	1.6333333333333333	-0.21532077959521062	1.831227219682438	-0.4756852524357213	-0.22402397299953603	1.82933077306979	-0.41613967356601667																-0.20336965224511327	1.8305502164147252	-0.5369455615142766	-0.1947230499807791	1.6917335890261427	-0.5000402049066862	-0.1946041015921691	1.5614956439142444	-0.4817838251971823				-0.22670994147592005	1.5301905543725662	-0.5107498392254771	-0.18693975899877663	1.5488185770766554	-0.4758327407997051	-0.20169364127286088	1.9822348149369158	-0.49808786260066973	-0.21999838791199833	2.041698901242722	-0.5460713999251503	-0.2165566147149769	1.9805924653130977	-0.41616414623657855	-0.25769516064639525	1.921841445183771	-0.4168823568660295	-0.23854716612284887	1.9371983073172858	-0.5008766970551175	-0.1828571778042769	1.9837576966019577	-0.5822086337145416	-0.20400234192563968	1.9265951233389451	-0.5759954661327376	-0.26571686716994614	1.9354820833889823	-0.5538954216567828
50	1.6666666666666667	-0.21768582522272686	1.8293914241774627	-0.48193260825589906	-0.2245057699736211	1.8275915092193737	-0.41597753306612545																-0.20186967390708813	1.829103114574145	-0.538982944055912	-0.19445975729718473	1.6923280006923984	-0.5003830869057765	-0.19425026434776912	1.5616746878498384	-0.48221659378942044				-0.22703506577299049	1.5320549989613004	-0.5105210806354072	-0.18693975899877663	1.5488185770766554	-0.4758327407997051	-0.20093456510984983	1.9845315767423732	-0.49580182633993714	-0.21783986821640805	2.0429445237070167	-0.5482750491706269	-0.2194653522296936	1.98271118003339	-0.40949291170270286	-0.25482866281697547	1.9334386606365235	-0.42663597357507904	-0.24210672988141763	1.9532358357869521	-0.5461047459947342	-0.18284155379662387	1.9865564123024582	-0.5829071204566341	-0.20379595905079795	1.9240010580175668	-0.5852032645735289	-0.2604642728495652	1.939981473071819	-0.5564001362297168
